<svg xmlns="http://www.w3.org/2000/svg" viewBox="0 0 197.24 101.78">
  <path fill="white"
    d="M18.08,30.73a.86.86,0,0,0,.71-.72,31.19,31.19,0,0,1,4.95-10.28A31.64,31.64,0,0,1,31.89,12,35.64,35.64,0,0,1,42.37,7.37c.9-.22,1.83-.42,2.8-.6a27.76,27.76,0,0,1,3.16-.37,22.43,22.43,0,0,1,3.28,0,13.67,13.67,0,0,1,3,.56,9.19,9.19,0,0,1,2.62,1.23,6.05,6.05,0,0,1,1.88,2.14,7.9,7.9,0,0,1,.92,3.15,18.18,18.18,0,0,1-1.81,9,39.8,39.8,0,0,0-11.44,6.23Q38,35.42,34.74,42.33a10.61,10.61,0,0,0-.61,1.8A5.72,5.72,0,0,0,34,45.9a1.88,1.88,0,0,0,.71,1.38,2.69,2.69,0,0,0,1.86.46,7.11,7.11,0,0,0,2.22-.51,11.09,11.09,0,0,0,2.36-1.32c.81-.58,1.46-1.06,1.94-1.45s1.11-.94,1.88-1.64l.36-.34a73.24,73.24,0,0,0,8.27-8.7,44.76,44.76,0,0,0,6-9.67A26.92,26.92,0,0,1,66.05,23a1,1,0,0,0,.88-.53,1.06,1.06,0,0,0,0-1,.88.88,0,0,0-.89-.48,28.84,28.84,0,0,0-5.54.81,26.23,26.23,0,0,0,1.35-5.05,11.53,11.53,0,0,0-.5-6,8.7,8.7,0,0,0-3.2-4,13.52,13.52,0,0,0-5-2.09,19.17,19.17,0,0,0-5.94-.26,37.25,37.25,0,0,0-13.3,4,34.4,34.4,0,0,0-10.71,8.72,32.32,32.32,0,0,0-6.35,12.28,1,1,0,0,0,.25,1A1.06,1.06,0,0,0,18.08,30.73ZM49,35.88a48.36,48.36,0,0,1-8.47,7.91q-5,3.48-4.43.66A12.06,12.06,0,0,1,37.51,41a20,20,0,0,1,2.68-3.5c1.08-1.17,2-2.14,2.84-2.9s1.8-1.65,3-2.65A40.44,40.44,0,0,1,57,25,62.85,62.85,0,0,1,49,35.88ZM33.26,14.43a.83.83,0,0,1,.46.87q-1,18.7-2.53,49.12a.9.9,0,0,1-.55.85,1,1,0,0,1-1,0,.85.85,0,0,1-.45-.86q.68-13.45,2.49-49.12a.9.9,0,0,1,.55-.85A1.11,1.11,0,0,1,33.26,14.43ZM65.36,31a9.51,9.51,0,0,0-1.88,3,8.44,8.44,0,0,0-.64,2.89c0,.06,0,.19,0,.39q-.15,5.45,3,6.21a3,3,0,0,0,1,.08,3.21,3.21,0,0,0,1.66-.67,6.58,6.58,0,0,0,2.12-3,11.5,11.5,0,0,0,.84-3.32,16.63,16.63,0,0,0-.26-4.21A8,8,0,0,0,76,31.69a4.5,4.5,0,0,0,.07.63,2,2,0,0,0,.24.78,7,7,0,0,0,.6.89c.26.34.49.62.68.84s.5.57.92,1c.8.85,1.42,1.56,1.88,2.12q-9,5.93-8.14,10.2a2.32,2.32,0,0,0,2.13,2,3.59,3.59,0,0,0,1,0,9.45,9.45,0,0,0,4.41-1.85,12.26,12.26,0,0,0,3.76-4.13,5.55,5.55,0,0,0-.3-5.71c.87-.54,1.9-1.16,3.11-1.84l.56-.33a9.85,9.85,0,0,0,.21,2.85,2.78,2.78,0,0,0,1.37,2,3.65,3.65,0,0,0,1.71.23,6.2,6.2,0,0,0,3-1.29,15.58,15.58,0,0,0,3-2.91c.93-1.17,1.65-2.13,2.17-2.9h0c0,.48,0,1,0,1.48a24.08,24.08,0,0,0,.88,5.28,6.47,6.47,0,0,0,1.94,3.52,3.13,3.13,0,0,0,2.13.58l.38,0a4.68,4.68,0,0,0,1.72-.82A7.66,7.66,0,0,0,107,42.93c.43-.54.74-1,1-1.27l.49-.78a1,1,0,0,0,.06-.76,1,1,0,0,0-.49-.6.89.89,0,0,0-.76-.08.92.92,0,0,0-.59.48,13,13,0,0,1-1.45,2,3.38,3.38,0,0,1-1.83,1.27,1,1,0,0,1-.88-.18q-1.07-.72-1.66-4.38a29.11,29.11,0,0,1-.27-7.27c1.69-3.82,3.14-7.3,4.35-10.47,1.18,0,2.39,0,3.62,0a24,24,0,0,0,9.07-1.5c2.33-1,3.65-2,4-3.15a.93.93,0,0,0,0-.75,1,1,0,0,0-.59-.47,1.08,1.08,0,0,0-.77.07,1,1,0,0,0-.51.55,1.19,1.19,0,0,1-.38.51,6.42,6.42,0,0,1-.94.65,11.36,11.36,0,0,1-1.51.72,17.3,17.3,0,0,1-2.12.67,23,23,0,0,1-2.76.49,29.48,29.48,0,0,1-3.4.18c-1,0-2,0-2.89.05.84-2.24,1.51-4.26,2-6.06s.88-3.22,1.06-4.24A20.4,20.4,0,0,0,109,5.9a8.43,8.43,0,0,0,0-1.55,1.69,1.69,0,0,0-.23-.61,1.75,1.75,0,0,0-1.39-1,2.33,2.33,0,0,0-1.76.53q-2.82,2.28-5.3,15.73c-8.57.36-13.57,1.33-15,2.93a1,1,0,0,0-.24.73,1.09,1.09,0,0,0,.32.69,1,1,0,0,0,.76.23,1,1,0,0,0,.66-.32q1.53-1.74,13.1-2.24-.87,5.15-1.35,9.37c-.28.36-.51.69-.57.79a33.12,33.12,0,0,1-4.66,6.15q-2.61,2.67-4.09,2a3,3,0,0,1-.42-1.69,20.35,20.35,0,0,1,.28-3.8,45.56,45.56,0,0,1,1-5,1.09,1.09,0,0,0,0-.54,1.05,1.05,0,0,0-.25-.43.92.92,0,0,0-.46-.26,1,1,0,0,0-.74.11.94.94,0,0,0-.45.6c-.3,1.13-.55,2.24-.77,3.36-.12.65-.24,1.37-.35,2.13l-.42.31c-.22.11-.7.38-1.43.83-1.37.78-2.45,1.42-3.24,1.89-.46-.56-1.16-1.36-2.12-2.4A10,10,0,0,1,78,32a3,3,0,0,1,.28-1.91,5.17,5.17,0,0,1,1.13-1.55,10.62,10.62,0,0,1,1.52-1.15,9.17,9.17,0,0,1,1.25-.72c.27-.13.47-.21.58-.25a.92.92,0,0,0,.56-.5,1,1,0,0,0,0-.79.89.89,0,0,0-.52-.55,1.06,1.06,0,0,0-.76,0l-.5.22a8.1,8.1,0,0,0-1,.48,13.39,13.39,0,0,0-1.31.79,10.06,10.06,0,0,0-1.35,1.11,7.51,7.51,0,0,0-1.16,1.43c-.06.09-.1.2-.15.29l0,0c-1.37,1.34-4,1.94-6.68,1.18a2.38,2.38,0,0,0-1.78-.53A4.28,4.28,0,0,0,65.36,31ZM106.9,4.87c.1-.07.16-.12.15-.15.37.54.21,2.11-.47,4.69s-1.74,5.75-3.15,9.51c-.48,0-.84,0-1.08,0Q104.72,6.62,106.9,4.87ZM102,21l.22,0,.25,0,.22,0c-.4,1.05-.78,2-1.16,3C101.66,22.93,101.81,22,102,21ZM81.78,43.24A10.82,10.82,0,0,1,78.21,47c-1.5,1-2.7,1.38-3.58,1.23a.56.56,0,0,1-.47-.43q-.57-2.93,7.33-8.15A3.59,3.59,0,0,1,81.78,43.24ZM68.09,31.54a3.27,3.27,0,0,0,.76.27c.44.68.61,2.25.52,4.7a5.69,5.69,0,0,1-.24,1.37,10.33,10.33,0,0,1-.78,1.92,4.94,4.94,0,0,1-1.09,1.53,1.23,1.23,0,0,1-1,.22c-.58-.14-1-.66-1.2-1.55a8.07,8.07,0,0,1-.18-2.68,1.48,1.48,0,0,1,0-.44,6.23,6.23,0,0,1,1-3.2A4.08,4.08,0,0,1,68.09,31.54Zm52.45-5.6a9.31,9.31,0,0,0-1.88,3l-.08.21c0,.06-.11.11-.15.17a32.87,32.87,0,0,1-4.66,6.16q-2.61,2.67-4.09,2a2.92,2.92,0,0,1-.42-1.69,20.35,20.35,0,0,1,.28-3.8,45.56,45.56,0,0,1,1-5,1.37,1.37,0,0,0,0-.54,1,1,0,0,0-.26-.43.85.85,0,0,0-.45-.26,1,1,0,0,0-.75.11.93.93,0,0,0-.44.6c-.3,1.13-.56,2.24-.77,3.36s-.4,2.38-.56,3.81a10.79,10.79,0,0,0,.15,3.7,2.78,2.78,0,0,0,1.37,2,3.65,3.65,0,0,0,1.71.23,6.29,6.29,0,0,0,3-1.29,15.58,15.58,0,0,0,3-2.91c.54-.69,1-1.29,1.41-1.84.16,2.81,1.14,4.44,2.93,4.87a2.81,2.81,0,0,0,1,.08,3.16,3.16,0,0,0,1.67-.67,6.62,6.62,0,0,0,2.12-3,11.5,11.5,0,0,0,.84-3.32,17.12,17.12,0,0,0-.26-4.21,8.1,8.1,0,0,0,4.69-.58,104.75,104.75,0,0,0-1.26,10.63,1,1,0,0,0,.51.86.93.93,0,0,0,1,0,4.49,4.49,0,0,0,1.15-1.12c.43-.56,1.1-1.5,2-2.82,2.46-3.62,4-5.57,4.7-5.83a12.58,12.58,0,0,1,.86,3.29c.21,1.05.38,1.84.5,2.38a8.17,8.17,0,0,0,.63,1.73,2.67,2.67,0,0,0,1.09,1.26,2.28,2.28,0,0,0,1.37.31,4.38,4.38,0,0,0,2.83-1.65.94.94,0,0,0,.23-.73,1,1,0,0,0-.34-.68,1,1,0,0,0-.74-.24,1,1,0,0,0-.66.32,4.29,4.29,0,0,1-.92.76c-.36.22-.62.28-.81.18s-.73-1.53-1.18-4q-.25-1.32-.42-1.95c-.11-.42-.26-.91-.46-1.47a2.53,2.53,0,0,0-.73-1.19,1.84,1.84,0,0,0-1.05-.38,3.58,3.58,0,0,0-2.63,1.5,52,52,0,0,0-3.93,5.24c-.27.43-.5.78-.68,1.05q.6-5.24,1.49-10.59a1,1,0,0,0-.19-.73,1,1,0,0,0-.67-.4,1,1,0,0,0-.73.2,1.1,1.1,0,0,0-.42.64c0,.23-.07.44-.1.66a1.07,1.07,0,0,0-.22.15q-2.06,2-6.14.87a2.33,2.33,0,0,0-1.78-.53A4.26,4.26,0,0,0,120.54,25.94Zm2.73.53a3.39,3.39,0,0,0,.75.28c.44.68.61,2.25.52,4.7a5.62,5.62,0,0,1-.24,1.36,10.31,10.31,0,0,1-.77,1.93,5.25,5.25,0,0,1-1.09,1.53,1.28,1.28,0,0,1-1,.22c-.59-.15-1-.67-1.2-1.55a8.13,8.13,0,0,1-.18-2.69,1.49,1.49,0,0,1,0-.43,6.3,6.3,0,0,1,1-3.2A4.15,4.15,0,0,1,123.27,26.47ZM112.58,68.13c1.33-.61,2.38-1.09,3.16-1.43s2-.78,3.54-1.31l3.27-1.07,3.43-1a.8.8,0,0,0,.65-.72,1.1,1.1,0,0,0-.34-1,.9.9,0,0,0-1-.2c-2.21.67-3.74,1.13-4.59,1.4s-2.24.75-4.17,1.45A48.93,48.93,0,0,0,112,66.09q-1.67.81-3.84,2.13A27.58,27.58,0,0,0,104.31,71c.19-4.1.64-5.4.85-8.65.17-2.29.34-4.55.51-6.81,0-.06.1-.87.34-2.45.15-1,.29-1.64.38-2.19A195.13,195.13,0,0,1,138,46.2a.89.89,0,0,0,.85-.93.9.9,0,0,0-.94-.86,195.55,195.55,0,0,0-30.87,4.52.89.89,0,0,0-.35-.76l-.36-.28a.8.8,0,0,0-1-.21,3.58,3.58,0,0,0-1.77,2A320.9,320.9,0,0,0,54.37,65.45C31.2,74.22,16,73.93,9.3,64.59,7,61.37,6.76,56.38,6.57,52c-.06-1.33-.12-2.59-.22-3.78A4.9,4.9,0,0,0,4.11,43.9c1.16-.64,1.7-2.07,1.59-4.31q0-1.73-.52-5.87C4.86,31,4.66,29,4.58,27.86c0-.43,0-.81,0-1.12s0-.68,0-1.1a6.71,6.71,0,0,1,0-1.13q.06-.5.18-1.05a8.43,8.43,0,0,1,.31-1.09,4.81,4.81,0,0,1,.49-1,5.35,5.35,0,0,1,1.72-1.8,4.08,4.08,0,0,1,2.43-.72A2.73,2.73,0,0,1,11.9,20.1a1,1,0,0,0,1.46.3.79.79,0,0,0,.27-1.28,4.83,4.83,0,0,0-3-2.06A6,6,0,0,0,7,17.38a6.5,6.5,0,0,0-2.92,2.36,8.36,8.36,0,0,0-1.4,3.78,22.7,22.7,0,0,0,0,4.82c0,.17.18,2.34.6,6.51.19,1.82.3,2.84.32,3,0,.54.08.94.11,1.2A2.43,2.43,0,0,1,2.25,42a1.07,1.07,0,0,0-.78-.71,1.07,1.07,0,0,0-.95.22.93.93,0,0,0-.26,1,10.33,10.33,0,0,1,.32,1.22,12.45,12.45,0,0,1-.09,1.25.93.93,0,0,0,.43.92,1.09,1.09,0,0,0,1,0,1.05,1.05,0,0,0,.6-.74,2.91,2.91,0,0,1,2.05,3v.13c.1,1.16.16,2.41.22,3.74C5,56.71,5.21,62,7.85,65.64q5.73,8,18.53,8c7.68,0,17.25-2.16,28.65-6.47a320.78,320.78,0,0,1,48.68-15.6c0,.62,0,1.33,0,2.14,0,1.44,0,2.32-.07,2.65-.41,5.4-1,8.62-1.3,14.44,0,.26,0,.67-.05,1.21s0,.94-.06,1.17a19.66,19.66,0,0,0-4.26,11.62,44,44,0,0,0,1.57,13.89,4.13,4.13,0,0,1,.19.64c.08.32.15.61.22.88s.15.58.27,1,.22.71.33,1a5.75,5.75,0,0,0,.94,1.7,2.22,2.22,0,0,0,.6.5,1.57,1.57,0,0,0,.7.21.8.8,0,0,0,.68-.33,1.29,1.29,0,0,0,.25-.77q-.19-13.37.45-28.44a2.21,2.21,0,0,1,0-.39c0-.18,0-.31,0-.4a20.67,20.67,0,0,1,2.52-2.38c1-.77,1.85-1.43,2.68-2A25.77,25.77,0,0,1,112.58,68.13Zm-11,30.11c-.26-.91-.49-1.77-.68-2.59A37.45,37.45,0,0,1,100,82.72a16.67,16.67,0,0,1,2-6.12Q101.53,87.69,101.57,98.24Zm41.75-22a1.89,1.89,0,0,1-1.83-.08,3.64,3.64,0,0,1-1.46-3c.74-.7,1.45-1.4,2.13-2.11s1.42-1.53,2.21-2.49a11.16,11.16,0,0,0,1.76-2.77,3.2,3.2,0,0,0,.27-2.24,2.32,2.32,0,0,0-2.25-1.41,3.81,3.81,0,0,0-3.27,1.67A12.37,12.37,0,0,0,139,67.32s0,0,0,0c-.75,1.43-2.26,3.83-3.26,5.29a22.88,22.88,0,0,1-3.42,4,5.73,5.73,0,0,1-3.34,1.83c-1,0-2-.76-3-2.34.46-.94.95-1.87,1.47-2.81s1-1.74,1.41-2.44.79-1.29,1.12-1.79a6.46,6.46,0,0,1,.74-1,1.25,1.25,0,0,0,.38-.34,1,1,0,0,0,.11-.75,1,1,0,0,0-.43-.64.89.89,0,0,0-.93-.08c-.39.14-1.06,1-2,2.43s-2,3.26-3,5.3a31.51,31.51,0,0,1-2-6,3,3,0,0,0-.18-.36.84.84,0,0,0-.27-.26,1.57,1.57,0,0,0-.38-.14.83.83,0,0,0-.38,0,.93.93,0,0,0-.63.43,1,1,0,0,0-.14.77,34.07,34.07,0,0,0,1,3.69.94.94,0,0,0-.16.23,32.74,32.74,0,0,1-4,6.59q-2.33,2.92-3.86,2.44a3.05,3.05,0,0,1-.59-1.64,20.65,20.65,0,0,1-.1-3.82,46,46,0,0,1,.51-5.11,1.15,1.15,0,0,0-.06-.54,1,1,0,0,0-.3-.4,1,1,0,0,0-.48-.22,1,1,0,0,0-.73.19.94.94,0,0,0-.38.64c-.18,1.15-.33,2.29-.43,3.42s-.15,2.41-.17,3.84a10.75,10.75,0,0,0,.52,3.67,2.83,2.83,0,0,0,1.57,1.89,3.83,3.83,0,0,0,1.72.06,6.39,6.39,0,0,0,2.89-1.6,15.32,15.32,0,0,0,2.71-3.2c.81-1.25,1.43-2.29,1.87-3.1.17-.31.32-.61.47-.9.27.58.55,1.14.85,1.68a42.25,42.25,0,0,0-2.88,7.27,1,1,0,0,0,.1.77,1,1,0,0,0,.62.45,1.24,1.24,0,0,0,.43,0,.89.89,0,0,0,.78-.72,38,38,0,0,1,2.25-5.83A5.22,5.22,0,0,0,129,80.45a6.59,6.59,0,0,0,.76-.1,6.76,6.76,0,0,0,2.43-1.07,13.3,13.3,0,0,0,2.34-2c.74-.8,1.41-1.59,2-2.39a24.73,24.73,0,0,0,1.49-2.1,8.42,8.42,0,0,0,.51,2.65,4.79,4.79,0,0,0,2,2.49,4,4,0,0,0,2.82.41,8.23,8.23,0,0,0,3.24-1.55,17.9,17.9,0,0,0,3.15-3c.56-.66,1-1.23,1.43-1.73a3.66,3.66,0,0,0,1.82,3.22s.08.08.1.07q1.92.86,3.84-1.1a27.71,27.71,0,0,0,4.3-6.62,13.41,13.41,0,0,0,.87,2.9q1.53,3.6,4.56,3.84a6.49,6.49,0,0,0,1.65-.1,6.4,6.4,0,0,0,2.27-1,10.13,10.13,0,0,0,1.77-1.46,12,12,0,0,0,1.29-1.7,14.4,14.4,0,0,0,.79-1.34c.13-.26.23-.48.31-.67a.9.9,0,0,0,0-.77.86.86,0,0,0-.54-.53,1,1,0,0,0-.76,0,1,1,0,0,0-.58.53v0a1.3,1.3,0,0,0-.1.18c0,.08-.13.25-.25.51s-.26.49-.39.71-.31.48-.54.8a6.89,6.89,0,0,1-.69.84c-.24.24-.51.49-.84.78a4.57,4.57,0,0,1-1,.65,7.9,7.9,0,0,1-1.08.4,2.42,2.42,0,0,1-1.19.08c-1.21-.08-2.19-1-2.92-2.63a17.53,17.53,0,0,1-1.17-5.33c.1-.23.26-.58.49-1.06a128.45,128.45,0,0,0,6.69-18q2.5-8.82,1.24-11.24a1.83,1.83,0,0,0-1.24-1q-1.55-.27-3,1.56-2.68,3.33-4.69,12.57A59.12,59.12,0,0,0,160.68,64q-4.76,10.21-6.77,9.56c-.71-.48-.93-1.43-.69-2.85a11.8,11.8,0,0,1,1.86-4.41c1-1.46,1.72-2.25,2.26-2.35a1,1,0,0,0,.66-.44,1,1,0,0,0,.16-.75,1,1,0,0,0-.43-.64A1,1,0,0,0,157,62c-1.12.22-2.28,1.25-3.47,3.07a17.7,17.7,0,0,0-1.24,2.21h0c-.45.7-1.8,2.41-2.4,3.19s-1.3,1.58-2.07,2.42A18.76,18.76,0,0,1,145.5,75,9.38,9.38,0,0,1,143.32,76.25Zm-2.72-7.54A11.15,11.15,0,0,1,142,65.65a3.09,3.09,0,0,1,1.72-1.41.76.76,0,0,1,.26,0c.32,0,.49,0,.49,0,.08.39-.3,1.15-1.13,2.28a36.17,36.17,0,0,1-3.18,3.69A13.22,13.22,0,0,1,140.6,68.71Zm23.93-22.94q1.75-7.17,3.87-9.78a2.05,2.05,0,0,1,1-.81q.66,1.41-1.15,8.51a108.86,108.86,0,0,1-5.68,16.05A67.61,67.61,0,0,1,164.53,45.77Zm32.64,14.69a1.1,1.1,0,0,1-1.73-.51A2.44,2.44,0,0,0,194,62.83l.1,1.2c0,.2.11,1.21.29,3,.36,4.17.51,6.34.52,6.52a20.76,20.76,0,0,1-.28,4.75A13.92,13.92,0,0,1,190.81,86c-4.17,4.26-11.13,6.08-20.7,5.41-4.77-.34-9.35-.76-13.77-1.17-18.54-1.71-34.56-3.19-47.76,3.77a.87.87,0,0,1-.42.1.88.88,0,0,1-.79-.48.9.9,0,0,1,.38-1.21c13.67-7.2,29.93-5.7,48.75-4,4.42.4,9,.83,13.73,1.16,9,.63,15.48-1,19.28-4.85a12.33,12.33,0,0,0,3.47-8.9.91.91,0,0,1,0-.23c0-.17,0-.33,0-.49,0-.31,0-.68,0-1.12-.06-1.14-.24-3.1-.54-5.86S192,63.45,192,62.3c-.07-1.9.32-3.21,1.15-3.95-.94-.6-1.53-1.82-1.76-3.71-.18-1.14-.34-3.1-.5-5.87s-.28-4.74-.4-5.88c-.07-.43-.12-.8-.16-1.11s-.09-.68-.15-1.09a7.24,7.24,0,0,0-.24-1.1c-.1-.33-.22-.66-.36-1a9.55,9.55,0,0,0-.49-1,4.2,4.2,0,0,0-.66-.89,5.28,5.28,0,0,0-2-1.48,4.1,4.1,0,0,0-2.53-.3,2.73,2.73,0,0,0-2,1.61,1,1,0,0,1-1.38.54.79.79,0,0,1-.49-1.21,4.79,4.79,0,0,1,2.58-2.54,6,6,0,0,1,3.69-.32,6.51,6.51,0,0,1,3.27,1.83,8.33,8.33,0,0,1,2,3.48,22.78,22.78,0,0,1,.83,4.75c.05.17.22,2.34.53,6.52.12,1.83.18,2.84.2,3l.1,1.2a2.41,2.41,0,0,0,1.89,2.61,1.08,1.08,0,0,1,1.62-.77.91.91,0,0,1,.42.91,11.77,11.77,0,0,0-.1,1.49,12.05,12.05,0,0,0,.33,1.46A.89.89,0,0,1,197.17,60.46ZM179.81,71.27c1.17-1.36.71-2.08.69-2.11a.89.89,0,0,1,.15-1.25.92.92,0,0,1,1.27.15c.06.07,1.44,1.84-.76,4.38a.85.85,0,0,1-.67.31.9.9,0,0,1-.68-1.48Zm2.36-8.16a1.18,1.18,0,0,1-2.35,0,1.18,1.18,0,1,1,2.35,0Z"
    transform="translate(-0.23 -2.75)" />
</svg>